<svg width="37" height="37" viewBox="0 0 37 37" fill="none" xmlns="http://www.w3.org/2000/svg">
<path fill-rule="evenodd" clip-rule="evenodd" d="M19.69 2.54577L5.45844 16.7774C5.26144 16.9743 5.32113 17.3074 5.57428 17.4237L8.34633 18.6973C9.1281 19.0565 9.75538 19.6838 10.1146 20.4655L12.2786 25.1756C12.3186 25.2625 12.3883 25.3322 12.4751 25.3721L17.1852 27.5361C17.9669 27.8953 18.5942 28.5226 18.9534 29.3044L20.2271 32.0764C20.3434 32.3296 20.6764 32.3893 20.8734 32.1923L35.1049 17.9607C35.2612 17.8045 35.2612 17.5512 35.1049 17.395L20.2557 2.54577C20.0995 2.38956 19.8462 2.38956 19.69 2.54577ZM18.7732 32.7444C19.3547 34.0102 21.0198 34.3086 22.0047 33.3236L36.2363 19.0921C37.0174 18.311 37.0174 17.0447 36.2363 16.2636L21.3871 1.4144C20.606 0.633352 19.3397 0.633351 18.5586 1.4144L4.32707 15.646C3.34209 16.631 3.64053 18.296 4.90628 18.8775L7.67834 20.1512C8.11265 20.3507 8.46114 20.6992 8.66069 21.1335L10.8248 25.8436C11.0243 26.2779 11.3728 26.6264 11.8071 26.826L16.5172 28.99C16.9515 29.1896 17.3 29.5381 17.4995 29.9724L18.7732 32.7444Z" fill="white"/>
<path fill-rule="evenodd" clip-rule="evenodd" d="M2.45614 35.1947L11.2493 35.103L2.5479 26.4015L2.45614 35.1947ZM0.847701 35.9949C0.843022 36.4432 1.20767 36.8078 1.65601 36.8032L13.1691 36.683C13.8778 36.6756 14.2276 35.8185 13.7265 35.3174L2.33348 23.9244C1.83235 23.4232 0.975235 23.773 0.96784 24.4817L0.847701 35.9949Z" fill="white"/>
<path fill-rule="evenodd" clip-rule="evenodd" d="M19.4072 24.6077C19.0948 24.2953 19.0948 23.7888 19.4072 23.4764L27.1853 15.6982C27.4978 15.3858 28.0043 15.3858 28.3167 15.6982C28.6291 16.0106 28.6291 16.5171 28.3167 16.8296L20.5385 24.6077C20.2261 24.9202 19.7196 24.9202 19.4072 24.6077Z" fill="white"/>
<path fill-rule="evenodd" clip-rule="evenodd" d="M13.0429 18.2435C12.7305 17.9311 12.7305 17.4245 13.0429 17.1121L20.8211 9.33393C21.1335 9.02151 21.64 9.02151 21.9525 9.33393C22.2649 9.64635 22.2649 10.1529 21.9525 10.4653L14.1743 18.2435C13.8619 18.5559 13.3553 18.5559 13.0429 18.2435Z" fill="white"/>
</svg>
