<svg width="185" height="143" viewBox="0 0 185 143" fill="none" xmlns="http://www.w3.org/2000/svg">
<path d="M65.4274 78.3387C54.9651 77.2583 45.8294 71.7162 39.9079 63.6676C39.854 63.592 39.854 63.4731 39.9079 63.3975C45.8294 55.3489 54.9543 49.8067 65.4059 48.7264C65.6647 48.7048 65.6647 48.3699 65.4059 48.3375C48.3317 46.5765 34.763 32.9857 33.0049 15.8947C32.9833 15.6354 32.649 15.6354 32.6166 15.8947C30.8585 32.9965 17.2898 46.5873 0.215707 48.3375C-0.0431556 48.3591 -0.0431556 48.694 0.215707 48.7264C10.6781 49.8067 19.803 55.3489 25.7137 63.3975C25.7676 63.4731 25.7676 63.592 25.7137 63.6676C19.7922 71.727 10.6673 77.2691 0.194147 78.3387C-0.0647156 78.3603 -0.0647156 78.6952 0.194147 78.7168C11.0016 79.8296 20.3962 85.685 26.2961 94.1658C26.35 94.2414 26.35 94.3494 26.2961 94.425C20.407 102.906 11.0124 108.761 0.20491 109.874C-0.053952 109.896 -0.053952 110.231 0.20491 110.263C17.279 112.024 30.8477 125.615 32.6058 142.706C32.6274 142.965 32.9618 142.965 32.9942 142.706C34.7523 125.604 48.3209 112.013 65.3951 110.263C65.6539 110.241 65.6539 109.906 65.3951 109.874C54.5983 108.761 45.2038 102.906 39.3039 94.425C39.25 94.3494 39.25 94.2414 39.3039 94.1658C45.2038 85.685 54.5984 79.8296 65.4059 78.7168C65.6647 78.6952 65.6647 78.3603 65.4059 78.3387H65.4274Z" fill="white"/>
<path d="M125.427 63.1385C114.965 62.0581 105.829 56.516 99.9079 48.4674C99.854 48.3918 99.854 48.2729 99.9079 48.1973C105.829 40.1487 114.954 34.6065 125.406 33.5262C125.665 33.5046 125.665 33.1697 125.406 33.1373C108.332 31.3763 94.763 17.7855 93.0049 0.694462C92.9833 0.435179 92.649 0.435179 92.6166 0.694462C90.8585 17.7963 77.2898 31.3871 60.2157 33.1373C59.9568 33.1589 59.9568 33.4938 60.2157 33.5262C70.6781 34.6065 79.803 40.1487 85.7137 48.1973C85.7676 48.2729 85.7676 48.3918 85.7137 48.4674C79.7922 56.5268 70.6673 62.0689 60.1941 63.1385C59.9353 63.1601 59.9353 63.495 60.1941 63.5166C71.0016 64.6294 80.3962 70.4848 86.2961 78.9656C86.35 79.0412 86.35 79.1492 86.2961 79.2249C80.407 87.7056 71.0124 93.561 60.2049 94.6738C59.946 94.6954 59.946 95.0303 60.2049 95.0627C77.279 96.8237 90.8477 110.414 92.6058 127.506C92.6274 127.765 92.9618 127.765 92.9942 127.506C94.7523 110.404 108.321 96.8129 125.395 95.0627C125.654 95.0411 125.654 94.7062 125.395 94.6738C114.598 93.561 105.204 87.7056 99.3039 79.2249C99.25 79.1492 99.25 79.0412 99.3039 78.9656C105.204 70.4848 114.598 64.6294 125.406 63.5166C125.665 63.495 125.665 63.1601 125.406 63.1385H125.427Z" fill="white"/>
<path d="M184.627 78.3387C174.165 77.2583 165.029 71.7162 159.108 63.6676C159.054 63.592 159.054 63.4731 159.108 63.3975C165.029 55.3489 174.154 49.8067 184.606 48.7264C184.864 48.7048 184.864 48.3699 184.606 48.3375C167.531 46.5765 153.963 32.9857 152.205 15.8947C152.183 15.6354 151.849 15.6354 151.816 15.8947C150.058 32.9965 136.49 46.5873 119.415 48.3375C119.157 48.3591 119.157 48.694 119.415 48.7264C129.878 49.8067 139.003 55.3489 144.913 63.3975C144.967 63.4731 144.967 63.592 144.913 63.6676C138.992 71.727 129.867 77.2691 119.394 78.3387C119.135 78.3603 119.135 78.6952 119.394 78.7168C130.201 79.8296 139.596 85.685 145.496 94.1658C145.55 94.2414 145.55 94.3494 145.496 94.425C139.607 102.906 130.212 108.761 119.405 109.874C119.146 109.896 119.146 110.231 119.405 110.263C136.479 112.024 150.047 125.615 151.806 142.706C151.827 142.965 152.162 142.965 152.194 142.706C153.952 125.604 167.521 112.013 184.595 110.263C184.854 110.241 184.854 109.906 184.595 109.874C173.798 108.761 164.404 102.906 158.504 94.425C158.45 94.3494 158.45 94.2414 158.504 94.1658C164.404 85.685 173.798 79.8296 184.606 78.7168C184.864 78.6952 184.864 78.3603 184.606 78.3387H184.627Z" fill="white"/>
</svg>
