<svg width="63" height="55" viewBox="0 0 63 55" fill="none" xmlns="http://www.w3.org/2000/svg">
<g clip-path="url(#clip0_429_1570)">
<path d="M21.936 33.353C18.4258 32.9925 15.3664 31.1323 13.3783 28.4329C13.3601 28.4056 13.3601 28.3692 13.3783 28.342C15.3634 25.6426 18.4228 23.7854 21.93 23.4219C22.0147 23.4128 22.0147 23.3007 21.93 23.2916C16.2046 22.7038 11.6534 18.1473 11.0633 12.4152C11.0543 12.3304 10.9423 12.3304 10.9332 12.4152C10.3431 18.1473 5.79189 22.7038 0.0665481 23.2916C-0.0181822 23.3007 -0.0181822 23.4128 0.0665481 23.4219C3.57378 23.7854 6.63315 25.6426 8.61825 28.342C8.63641 28.3692 8.63641 28.4056 8.61825 28.4329C6.63315 31.1323 3.57075 32.9894 0.060496 33.353C-0.0242343 33.3621 -0.0242343 33.4712 0.060496 33.4802C3.68574 33.8529 6.83589 35.8161 8.81192 38.6579C8.83008 38.6852 8.83008 38.7185 8.81192 38.7458C6.83589 41.5875 3.68574 43.5508 0.063522 43.9234C-0.0212083 43.9325 -0.0212083 44.0446 0.063522 44.0537C5.78887 44.6414 10.3431 49.198 10.9302 54.9301C10.9393 55.0149 11.0512 55.0149 11.0603 54.9301C11.6504 49.198 16.2016 44.6414 21.927 44.0537C22.0117 44.0446 22.0117 43.9325 21.927 43.9234C18.3047 43.5508 15.1546 41.5875 13.1786 38.7458C13.1604 38.7185 13.1604 38.6852 13.1786 38.6579C15.1546 35.8161 18.3078 33.8499 21.93 33.4802C22.0147 33.4712 22.0147 33.3621 21.93 33.353H21.936Z" fill="white"/>
<path d="M42.6739 27.9389C39.1636 27.5784 36.1042 25.7182 34.1161 23.0188C34.0979 22.9915 34.0979 22.9552 34.1161 22.9279C36.1012 20.2285 39.1606 18.3713 42.6708 18.0078C42.7556 17.9987 42.7556 17.8866 42.6708 17.8775C36.9455 17.2898 32.3943 12.7332 31.8042 7.00112C31.7951 6.91629 31.6831 6.91629 31.6741 7.00112C31.084 12.7332 26.5327 17.2898 20.8074 17.8775C20.7227 17.8866 20.7227 17.9987 20.8074 18.0078C24.3146 18.3713 27.374 20.2285 29.3591 22.9279C29.3773 22.9552 29.3773 22.9915 29.3591 23.0188C27.374 25.7182 24.3116 27.5754 20.8013 27.9389C20.7166 27.948 20.7166 28.0571 20.8013 28.0662C24.4266 28.4388 27.5767 30.402 29.5528 33.2438C29.5709 33.2711 29.5709 33.3044 29.5528 33.3317C27.5767 36.1735 24.4266 38.1367 20.8044 38.5093C20.7196 38.5184 20.7196 38.6305 20.8044 38.6396C26.5297 39.2274 31.084 43.7839 31.671 49.516C31.6801 49.6008 31.7921 49.6008 31.8011 49.516C32.3912 43.7839 36.9425 39.2274 42.6678 38.6396C42.7525 38.6305 42.7525 38.5184 42.6678 38.5093C39.0456 38.1367 35.8954 36.1735 33.9194 33.3317C33.9012 33.3044 33.9012 33.2711 33.9194 33.2438C35.8954 30.402 39.0486 28.4358 42.6708 28.0662C42.7556 28.0571 42.7556 27.948 42.6708 27.9389H42.6739Z" fill="white"/>
<path d="M62.9365 33.353C59.4262 32.9925 56.3668 31.1323 54.3787 28.4329C54.3605 28.4056 54.3605 28.3692 54.3787 28.342C56.3638 25.6426 59.4232 23.7854 62.9334 23.4219C63.0182 23.4128 63.0182 23.3007 62.9334 23.2916C57.2081 22.7038 52.6569 18.1473 52.0668 12.4152C52.0577 12.3304 51.9457 12.3304 51.9367 12.4152C51.3466 18.1473 46.7953 22.7038 41.07 23.2916C40.9853 23.3007 40.9853 23.4128 41.07 23.4219C44.5772 23.7854 47.6366 25.6426 49.6247 28.342C49.6429 28.3692 49.6429 28.4056 49.6247 28.4329C47.6396 31.1323 44.5772 32.9894 41.067 33.353C40.9822 33.3621 40.9822 33.4712 41.067 33.4802C44.6922 33.8529 47.8424 35.8161 49.8184 38.6579C49.8366 38.6852 49.8366 38.7185 49.8184 38.7457C47.8424 41.5875 44.6922 43.5507 41.07 43.9234C40.9853 43.9325 40.9853 44.0446 41.07 44.0537C46.7953 44.6414 51.3496 49.198 51.9367 54.9301C51.9457 55.0149 52.0577 55.0149 52.0668 54.9301C52.6569 49.198 57.2081 44.6414 62.9334 44.0537C63.0182 44.0446 63.0182 43.9325 62.9334 43.9234C59.3112 43.5507 56.1611 41.5875 54.185 38.7457C54.1669 38.7185 54.1669 38.6852 54.185 38.6579C56.1611 35.8161 59.3142 33.8499 62.9365 33.4802C63.0212 33.4712 63.0212 33.3621 62.9365 33.353Z" fill="white"/>
<path d="M43.3335 6.21075C45.0466 6.21075 46.4353 4.82043 46.4353 3.10538C46.4353 1.39032 45.0466 0 43.3335 0C41.6205 0 40.2318 1.39032 40.2318 3.10538C40.2318 4.82043 41.6205 6.21075 43.3335 6.21075Z" fill="white"/>
</g>
<defs>
<clipPath id="clip0_429_1570">
<rect width="63" height="55" fill="white"/>
</clipPath>
</defs>
</svg>
