<svg width="35" height="35" viewBox="0 0 37 38" fill="none" xmlns="http://www.w3.org/2000/svg">
<path d="M35.7862 16.2043C32.0583 12.0087 32.0583 5.66594 35.7862 1.47036C35.806 1.4473 35.7796 1.42425 35.7599 1.44401C31.5643 5.17195 25.2216 5.17195 21.026 1.44401C21.003 1.42425 20.9799 1.4506 20.9997 1.47036C24.7276 5.66594 24.7276 12.0087 20.9997 16.2043C20.9799 16.2274 21.0063 16.2504 21.026 16.2306C25.2216 12.5027 31.5643 12.5027 35.7599 16.2306C35.7829 16.2504 35.806 16.2241 35.7862 16.2043Z" stroke="white" stroke-width="1.8" stroke-miterlimit="10"/>
<path d="M15.7306 36.26C12.0026 32.0644 12.0026 25.7216 15.7306 21.526C15.7503 21.503 15.724 21.4799 15.7042 21.4997C11.5086 25.2276 5.16591 25.2276 0.970355 21.4997C0.947303 21.4799 0.92425 21.5063 0.94401 21.526C4.67193 25.7216 4.67193 32.0644 0.94401 36.26C0.92425 36.283 0.950596 36.3061 0.970355 36.2863C5.16591 32.5584 11.5086 32.5584 15.7042 36.2863C15.7273 36.3061 15.7503 36.2797 15.7306 36.26Z" stroke="white" stroke-width="1.8" stroke-miterlimit="10"/>
<path d="M22.4058 14.8208L14.4165 22.8102" stroke="white" stroke-width="1.8" stroke-miterlimit="10"/>
</svg>
