<svg width="73" height="143" viewBox="0 0 73 143" fill="none" xmlns="http://www.w3.org/2000/svg">
<path d="M72.6085 70.2232C60.9979 69.0138 50.8594 62.8093 44.288 53.7989C44.2282 53.7143 44.2282 53.5812 44.288 53.4966C50.8594 44.4862 60.9859 38.2818 72.5845 37.0723C72.8718 37.0481 72.8718 36.6732 72.5845 36.6369C53.6364 34.6655 38.5785 19.4507 36.6274 0.317309C36.6035 0.0270427 36.2324 0.0270427 36.1965 0.317309C34.2454 19.4628 19.1875 34.6776 0.239382 36.6369C-0.0478921 36.6611 -0.0478921 37.036 0.239382 37.0723C11.85 38.2818 21.9765 44.4862 28.5359 53.4966C28.5957 53.5812 28.5957 53.7143 28.5359 53.7989C21.9645 62.8214 11.8381 69.0258 0.215455 70.2232C-0.0718185 70.2474 -0.0718185 70.6223 0.215455 70.6465C12.2091 71.8922 22.6348 78.4474 29.1822 87.9416C29.2421 88.0262 29.2421 88.1472 29.1822 88.2318C22.6467 97.726 12.2211 104.281 0.2274 105.527C-0.0598736 105.551 -0.0598736 105.926 0.2274 105.962C19.1755 107.934 34.2335 123.148 36.1845 142.282C36.2085 142.572 36.5796 142.572 36.6155 142.282C38.5665 123.136 53.6245 107.922 72.5726 105.962C72.8598 105.938 72.8598 105.563 72.5726 105.527C60.5908 104.281 50.1652 97.726 43.6177 88.2318C43.5579 88.1472 43.5579 88.0262 43.6177 87.9416C50.1652 78.4474 60.5909 71.8922 72.5845 70.6465C72.8718 70.6223 72.8718 70.2474 72.5845 70.2232H72.6085Z" fill="white"/>
</svg>
