<svg width="85" height="130" viewBox="0 0 85 130" fill="none" xmlns="http://www.w3.org/2000/svg">
<path d="M84.6484 87.4503C61.9484 86.1166 43.783 67.9512 42.4493 45.2512C42.4493 45.1311 42.3025 45.1311 42.2892 45.2512C40.9555 67.9512 22.7901 86.1166 0.0900267 87.4503C-0.0300089 87.4503 -0.0300089 87.5971 0.0900267 87.6104C22.7901 88.9441 40.9555 107.11 42.2892 129.81C42.2892 129.93 42.4359 129.93 42.4493 129.81C43.783 107.11 61.9484 88.9441 84.6484 87.6104C84.7685 87.6104 84.7685 87.4637 84.6484 87.4503Z" fill="white"/>
<path d="M84.6484 42.589C61.9484 41.2553 43.783 23.0899 42.4493 0.389831C42.4493 0.269796 42.3025 0.269796 42.2892 0.389831C40.9555 23.0899 22.7901 41.2553 0.0900267 42.589C-0.0300089 42.589 -0.0300089 42.7357 0.0900267 42.7491C22.7901 44.0828 40.9555 62.2482 42.2892 84.9482C42.2892 85.0683 42.4359 85.0683 42.4493 84.9482C43.783 62.2482 61.9484 44.0828 84.6484 42.7491C84.7685 42.7491 84.7685 42.6023 84.6484 42.589Z" fill="white"/>
</svg>
